<svg data-v-423bf9ae="" xmlns="http://www.w3.org/2000/svg" viewBox="0 0 637 90" class="iconLeft"><!----><!----><!----><g data-v-423bf9ae="" id="0313b8ab-9c76-4c50-9a89-ced4e6c411e2" fill="black" transform="matrix(6.054490506946714,0,0,6.054490506946714,96.97756673705538,4.828457213078728)"><path d="M0.91 1.68L0.91 11.48L1.96 11.48L1.96 7.45C1.96 6.19 2.91 5.32 4.07 5.32C5.22 5.32 6.03 6.16 6.03 7.43L6.03 11.48L7.08 11.48L7.08 7.41C7.08 5.42 5.73 4.37 4.28 4.37C3.15 4.37 2.46 4.90 1.96 5.57L1.96 1.68ZM11.79 4.37C9.74 4.37 8.40 5.98 8.40 7.98C8.40 9.98 9.74 11.59 11.79 11.59C12.95 11.59 13.78 11.12 14.29 10.36L14.29 11.48L15.34 11.48L15.34 4.48L14.29 4.48L14.29 5.61C13.78 4.86 12.95 4.37 11.79 4.37ZM11.93 10.64C10.37 10.64 9.45 9.42 9.45 7.98C9.45 6.54 10.37 5.32 11.93 5.32C13.48 5.32 14.35 6.54 14.35 7.98C14.35 9.42 13.48 10.64 11.93 10.64ZM20.79 4.37C19.05 4.37 18.35 5.73 18.21 6.20L18.21 4.48L17.16 4.48L17.16 11.48L18.21 11.48L18.21 8.40C18.21 6.86 19.17 5.42 20.73 5.42L20.86 5.42L20.86 4.37ZM25.55 4.37C24.39 4.37 23.56 4.86 23.04 5.61L23.04 1.68L21.99 1.68L21.99 11.48L23.04 11.48L23.04 10.36C23.56 11.12 24.39 11.59 25.55 11.59C27.59 11.59 28.94 9.98 28.94 7.98C28.94 5.98 27.59 4.37 25.55 4.37ZM25.41 10.64C23.86 10.64 22.99 9.42 22.99 7.98C22.99 6.54 23.86 5.32 25.41 5.32C26.96 5.32 27.89 6.54 27.89 7.98C27.89 9.42 26.96 10.64 25.41 10.64ZM33.35 4.37C31.21 4.37 29.88 5.98 29.88 7.98C29.88 9.98 31.21 11.59 33.35 11.59C35.49 11.59 36.82 9.98 36.82 7.98C36.82 5.98 35.49 4.37 33.35 4.37ZM33.35 10.64C31.79 10.64 30.93 9.42 30.93 7.98C30.93 6.54 31.79 5.32 33.35 5.32C34.90 5.32 35.77 6.54 35.77 7.98C35.77 9.42 34.90 10.64 33.35 10.64ZM41.83 4.37C40.10 4.37 39.40 5.73 39.26 6.20L39.26 4.48L38.21 4.48L38.21 11.48L39.26 11.48L39.26 8.40C39.26 6.86 40.21 5.42 41.78 5.42L41.90 5.42L41.90 4.37ZM51.74 7.29C51.74 6.05 52.60 5.32 53.63 5.32C54.61 5.32 55.37 6.10 55.37 7.28L55.37 11.48L56.42 11.48L56.42 7.25C56.42 5.49 55.17 4.37 53.83 4.37C52.44 4.37 51.70 5.31 51.42 5.78C50.97 4.89 50.12 4.37 49.20 4.37C48.06 4.37 47.39 4.98 47.07 5.54L47.07 4.48L46.02 4.48L46.02 11.48L47.07 11.48L47.07 7.29C47.07 6.05 47.92 5.32 48.96 5.32C49.94 5.32 50.69 6.10 50.69 7.28L50.69 11.48L51.74 11.48ZM61.12 4.37C59.08 4.37 57.74 5.98 57.74 7.98C57.74 9.98 59.08 11.59 61.12 11.59C62.29 11.59 63.11 11.12 63.63 10.36L63.63 11.48L64.68 11.48L64.68 4.48L63.63 4.48L63.63 5.61C63.11 4.86 62.29 4.37 61.12 4.37ZM61.26 10.64C59.71 10.64 58.79 9.42 58.79 7.98C58.79 6.54 59.71 5.32 61.26 5.32C62.82 5.32 63.69 6.54 63.69 7.98C63.69 9.42 62.82 10.64 61.26 10.64ZM68.94 4.37C67.13 4.37 66.19 5.11 66.19 6.37C66.19 8.93 70.85 7.84 70.85 9.59C70.85 10.54 69.64 10.70 69.06 10.70C67.70 10.70 67.17 10.00 67.10 9.28L66.01 9.28C66.08 10.51 67.10 11.59 69.05 11.59C70.78 11.59 71.90 10.85 71.90 9.49C71.90 6.86 67.24 7.95 67.24 6.27C67.24 5.59 67.82 5.26 68.91 5.26C70.08 5.26 70.53 5.75 70.62 6.36L71.68 6.36C71.55 5.33 70.78 4.37 68.94 4.37ZM75.05 11.48L75.05 5.40L76.66 5.40L76.66 4.48L75.05 4.48L75.05 1.97L74.00 1.97L74.00 4.48L72.58 4.48L72.58 5.40L74.00 5.40L74.00 11.48ZM80.79 10.64C79.38 10.64 78.47 9.65 78.32 8.40L84.18 8.40L84.18 7.98C84.18 5.98 82.85 4.37 80.71 4.37C78.57 4.37 77.24 5.98 77.24 7.98C77.24 9.98 78.64 11.59 80.78 11.59C82.45 11.59 83.48 10.72 83.97 9.46L82.82 9.46C82.45 10.16 81.77 10.64 80.79 10.64ZM80.71 5.32C82.05 5.32 82.89 6.23 83.09 7.42L78.33 7.42C78.53 6.23 79.37 5.32 80.71 5.32ZM89.10 4.37C87.36 4.37 86.66 5.73 86.52 6.20L86.52 4.48L85.47 4.48L85.47 11.48L86.52 11.48L86.52 8.40C86.52 6.86 87.47 5.42 89.04 5.42L89.17 5.42L89.17 4.37Z"></path></g><!----><g data-v-423bf9ae="" id="6dd4135f-9e9e-49ae-a1ed-024aa5d891ce" transform="matrix(7.731741888895634,0,0,7.731741888895634,-7.073304951431659,-3.5660776766966436)" stroke="none" fill="black"><path d="M6.376.53a1.362 1.362 0 0 0-.585 2.604l-.015.626H4.17a.343.343 0 0 0 0 .686h1.588l-.124 5.342a.634.634 0 0 1-.709.6 2.28 2.28 0 0 1-1.59-.952.634.634 0 0 1 .253-.94 4.082 4.082 0 0 1-2.344-1.789.057.057 0 0 0-.104.014 3.219 3.219 0 0 0 .654 2.99.432.432 0 0 1 .24-.156.285.285 0 0 1 .31.128 4.453 4.453 0 0 0 2.874 2.028 2.02 2.02 0 0 1 1.077.44.086.086 0 0 0 .108 0 2.02 2.02 0 0 1 1.077-.44 4.453 4.453 0 0 0 2.873-2.028.285.285 0 0 1 .31-.128.432.432 0 0 1 .24.157 3.219 3.219 0 0 0 .655-2.99.057.057 0 0 0-.104-.015 4.082 4.082 0 0 1-2.344 1.788.634.634 0 0 1 .253.94 2.28 2.28 0 0 1-1.591.953.634.634 0 0 1-.71-.63l-.124-5.312h1.589a.343.343 0 0 0 0-.686H6.923l-.015-.626A1.362 1.362 0 0 0 6.376.53zm-.043.778a.584.584 0 0 1 .6.584.584.584 0 1 1-1.168 0 .584.584 0 0 1 .568-.584z"></path></g><!----></svg>